<svg xmlns="http://www.w3.org/2000/svg" viewBox="0 0 64 64">
  <defs>
    <radialGradient id="iris" cx="42%" cy="38%" r="70%">
      <stop offset="0%" stop-color="#e5333f"/>
      <stop offset="55%" stop-color="#c62828"/>
      <stop offset="100%" stop-color="#5e0a10"/>
    </radialGradient>
  </defs>
  <circle cx="32" cy="32" r="30" fill="#0a0b0d"/>
  <circle cx="32" cy="32" r="26" fill="url(#iris)"/>
  <circle cx="32" cy="32" r="13.5" fill="none" stroke="#14060a" stroke-width="1.6"/>
  <circle cx="32" cy="32" r="6.5" fill="#050203"/>
  <g fill="#14060a">
    <path d="M32 15.5a4 4 0 1 1-.2 8 9 9 0 0 0-6.3 2.4A9.4 9.4 0 0 1 32 15.5z"/>
    <path d="M46.3 40.25a4 4 0 1 1-6.83 4.17 9 9 0 0 0 1.07-6.66 9.4 9.4 0 0 1 5.76 2.49z" transform="rotate(-1 32 32)"/>
    <path d="M17.7 40.25a4 4 0 1 0 6.83 4.17 9 9 0 0 1-1.07-6.66 9.4 9.4 0 0 0-5.76 2.49z" transform="rotate(1 32 32)"/>
  </g>
  <circle cx="26" cy="24" r="4.2" fill="#ffffff" opacity="0.75"/>
</svg>
